<svg width="27" height="22" viewBox="0 0 27 22" fill="none" xmlns="http://www.w3.org/2000/svg">
<path d="M0 11C0 10.8465 0.0618382 10.6992 0.171913 10.5906C0.281986 10.4821 0.431278 10.4211 0.586946 10.4211L24.9951 10.4211L15.4323 0.988848C15.3222 0.880217 15.2603 0.732882 15.2603 0.579254C15.2603 0.425627 15.3222 0.278292 15.4323 0.169661C15.5424 0.0610294 15.6918 0 15.8476 0C16.0033 0 16.1527 0.0610294 16.2628 0.169661L26.8279 10.5904C26.8824 10.6442 26.9257 10.708 26.9553 10.7783C26.9848 10.8486 27 10.9239 27 11C27 11.0761 26.9848 11.1514 26.9553 11.2217C26.9257 11.292 26.8824 11.3558 26.8279 11.4096L16.2628 21.8303C16.2083 21.8841 16.1435 21.9268 16.0723 21.9559C16.001 21.985 15.9247 22 15.8476 22C15.7704 22 15.6941 21.985 15.6228 21.9559C15.5516 21.9268 15.4868 21.8841 15.4323 21.8303C15.3778 21.7766 15.3345 21.7127 15.305 21.6424C15.2755 21.5721 15.2603 21.4968 15.2603 21.4207C15.2603 21.3447 15.2755 21.2694 15.305 21.1991C15.3345 21.1288 15.3778 21.0649 15.4323 21.0112L24.9951 11.5789L0.586946 11.5789C0.431278 11.5789 0.281986 11.5179 0.171913 11.4094C0.0618382 11.3008 0 11.1535 0 11Z" fill="black"/>
</svg>
