<svg width="57" height="42" viewBox="0 0 57 42" fill="none" xmlns="http://www.w3.org/2000/svg">
<g filter="url(#filter0_d_576_361)">
<mask id="path-1-inside-1_576_361" fill="white">
<path fill-rule="evenodd" clip-rule="evenodd" d="M2.48438 4.97922H23.3776L20.4418 0H5.02875L2.48438 4.97922ZM41.3211 4.97959H2.48438V39.1507H36.3211C41.8439 39.1507 46.3211 34.6736 46.3211 29.1507V9.97959C46.3211 7.21816 44.0825 4.97959 41.3211 4.97959Z"/>
</mask>
<path fill-rule="evenodd" clip-rule="evenodd" d="M2.48438 4.97922H23.3776L20.4418 0H5.02875L2.48438 4.97922ZM41.3211 4.97959H2.48438V39.1507H36.3211C41.8439 39.1507 46.3211 34.6736 46.3211 29.1507V9.97959C46.3211 7.21816 44.0825 4.97959 41.3211 4.97959Z" fill="url(#paint0_linear_576_361)"/>
<path d="M23.3776 4.97922V5.97922H25.1281L24.239 4.47132L23.3776 4.97922ZM2.48438 4.97922L1.5939 4.52419L0.850382 5.97922H2.48438V4.97922ZM20.4418 0L21.3032 -0.507902L21.013 -1H20.4418V0ZM5.02875 0V-1H4.41675L4.13827 -0.455031L5.02875 0ZM2.48438 4.97959V3.97959H1.48438V4.97959H2.48438ZM2.48438 39.1507H1.48438V40.1507H2.48438V39.1507ZM23.3776 3.97922H2.48438V5.97922H23.3776V3.97922ZM19.5804 0.507902L22.5162 5.48713L24.239 4.47132L21.3032 -0.507902L19.5804 0.507902ZM5.02875 1H20.4418V-1H5.02875V1ZM3.37485 5.43426L5.91922 0.455031L4.13827 -0.455031L1.5939 4.52419L3.37485 5.43426ZM2.48438 5.97959H41.3211V3.97959H2.48438V5.97959ZM3.48438 39.1507V4.97959H1.48438V39.1507H3.48438ZM36.3211 38.1507H2.48438V40.1507H36.3211V38.1507ZM45.3211 29.1507C45.3211 34.1213 41.2916 38.1507 36.3211 38.1507V40.1507C42.3962 40.1507 47.3211 35.2259 47.3211 29.1507H45.3211ZM45.3211 9.97959V29.1507H47.3211V9.97959H45.3211ZM41.3211 5.97959C43.5302 5.97959 45.3211 7.77045 45.3211 9.97959H47.3211C47.3211 6.66588 44.6348 3.97959 41.3211 3.97959V5.97959Z" fill="black" mask="url(#path-1-inside-1_576_361)"/>
<rect x="3.8375" y="5.17441" width="40.2602" height="31.6662" fill="#EEEEEE" stroke="black" stroke-width="0.8"/>
<rect x="4.79844" y="6.12949" width="40.2602" height="29.7564" fill="#EEEEEE" stroke="black" stroke-width="0.8"/>
<path d="M55.0142 9.0791L46.0171 39.0521H2.58594L12.007 9.0791H55.0142Z" fill="url(#paint1_linear_576_361)" stroke="black"/>
</g>
<defs>
<filter id="filter0_d_576_361" x="0.90625" y="0" width="55.7812" height="41.5518" filterUnits="userSpaceOnUse" color-interpolation-filters="sRGB">
<feFlood flood-opacity="0" result="BackgroundImageFix"/>
<feColorMatrix in="SourceAlpha" type="matrix" values="0 0 0 0 0 0 0 0 0 0 0 0 0 0 0 0 0 0 127 0" result="hardAlpha"/>
<feOffset dy="1"/>
<feGaussianBlur stdDeviation="0.5"/>
<feComposite in2="hardAlpha" operator="out"/>
<feColorMatrix type="matrix" values="0 0 0 0 0 0 0 0 0 0 0 0 0 0 0 0 0 0 0.3 0"/>
<feBlend mode="normal" in2="BackgroundImageFix" result="effect1_dropShadow_576_361"/>
<feBlend mode="normal" in="SourceGraphic" in2="effect1_dropShadow_576_361" result="shape"/>
</filter>
<linearGradient id="paint0_linear_576_361" x1="24.4027" y1="4.97926" x2="24.4027" y2="39.1507" gradientUnits="userSpaceOnUse">
<stop stop-color="#83BBE7"/>
<stop offset="1" stop-color="#EEEEEE"/>
</linearGradient>
<linearGradient id="paint1_linear_576_361" x1="28.8001" y1="9.0791" x2="28.8001" y2="39.0521" gradientUnits="userSpaceOnUse">
<stop stop-color="#94C3ED"/>
<stop offset="1" stop-color="white"/>
</linearGradient>
</defs>
</svg>
