<svg width="170" height="352" viewBox="0 0 170 352" fill="none" xmlns="http://www.w3.org/2000/svg">
<line x1="169" y1="-4.72035e-08" x2="169" y2="323" stroke="black" stroke-width="2"/>
<path d="M17.2617 27.2188C17.2747 23.625 17.7826 20.2852 18.7852 17.1992C19.7878 14.1003 21.2396 11.2031 23.1406 8.50781H27.8086C26.8971 9.83594 26.0312 11.5352 25.2109 13.6055C24.3906 15.6758 23.7201 17.9023 23.1992 20.2852C22.6914 22.668 22.4375 24.9792 22.4375 27.2188C22.4375 29.4583 22.6914 31.776 23.1992 34.1719C23.7201 36.5677 24.3906 38.7943 25.2109 40.8516C26.0312 42.9219 26.8971 44.6276 27.8086 45.9688H23.1406C21.2526 43.2344 19.8008 40.3242 18.7852 37.2383C17.7826 34.1393 17.2747 30.7995 17.2617 27.2188ZM47.5156 11.1641C47.5156 13.2214 46.9167 15.1094 45.7188 16.8281C44.5339 18.5469 42.8802 19.9857 40.7578 21.1445C38.6354 22.2904 36.2005 23.0716 33.4531 23.4883L31.8125 20.0898C34.1562 19.7773 36.2331 19.1719 38.043 18.2734C39.8529 17.375 41.2526 16.3073 42.2422 15.0703C43.2318 13.8203 43.7266 12.5182 43.7266 11.1641V9.95312H47.5156V11.1641ZM48.7266 11.1641C48.7266 12.5182 49.2148 13.8203 50.1914 15.0703C51.181 16.3073 52.5807 17.375 54.3906 18.2734C56.2135 19.1719 58.2969 19.7773 60.6406 20.0898L59.0781 23.4883C56.3047 23.0716 53.8503 22.2904 51.7148 21.1445C49.5794 19.9987 47.9128 18.5664 46.7148 16.8477C45.5299 15.1159 44.9375 13.2214 44.9375 11.1641V9.95312H48.7266V11.1641ZM48.2773 41.457H44V28.293H48.2773V41.457ZM62.3008 29.3477H30.1523V25.8516H62.3008V29.3477ZM59.3516 11.5742H33.0625V8.15625H59.3516V11.5742ZM73.6875 17.1992C74.6901 20.2852 75.1979 23.625 75.2109 27.2188C75.1979 30.7995 74.6836 34.1393 73.668 37.2383C72.6654 40.3242 71.2201 43.2344 69.332 45.9688H64.6641C65.5755 44.6276 66.4414 42.9219 67.2617 40.8516C68.082 38.7943 68.7461 36.5677 69.2539 34.1719C69.7747 31.776 70.0352 29.4583 70.0352 27.2188C70.0352 24.9792 69.7747 22.668 69.2539 20.2852C68.7461 17.9023 68.082 15.6758 67.2617 13.6055C66.4414 11.5352 65.5755 9.83594 64.6641 8.50781H69.332C71.2331 11.2031 72.6849 14.1003 73.6875 17.1992ZM27.0273 71.6836C27.0273 73.7018 26.6432 75.5833 25.875 77.3281C25.1068 79.0729 23.974 80.5964 22.4766 81.8984C20.9792 83.1875 19.1758 84.1445 17.0664 84.7695L14.9766 81.3906C16.7995 80.8828 18.3555 80.1406 19.6445 79.1641C20.9336 78.1745 21.9036 77.0352 22.5547 75.7461C23.2188 74.457 23.5508 73.1029 23.5508 71.6836V70.2969H27.0273V71.6836ZM27.8477 71.6836C27.8477 72.9987 28.1797 74.2552 28.8438 75.4531C29.5208 76.651 30.5039 77.7122 31.793 78.6367C33.082 79.5612 34.6185 80.2643 36.4023 80.7461L34.4297 84.125C32.3073 83.5521 30.4844 82.6602 28.9609 81.4492C27.4505 80.2253 26.2982 78.7734 25.5039 77.0938C24.7096 75.4141 24.3125 73.6107 24.3125 71.6836V70.2969H27.8477V71.6836ZM35.25 71.3711H16.1484V67.9336H35.25V71.3711ZM27.9062 69.3984H23.5508V64.0078H27.9062V69.3984ZM41.5391 77.1914H34.293V73.6562H41.5391V77.1914ZM44.7422 84.9258H40.4062V64.1641H44.7422V84.9258ZM44.7422 99.0273H21.2461V86.5469H44.7422V99.0273ZM25.6016 95.5312H40.5039V90.043H25.6016V95.5312ZM77.5938 89.7109H73.2578V64.1836H77.5938V89.7109ZM82.5742 77.6992H76.2852V74.1055H82.5742V77.6992ZM54.0977 80.1992C58.1341 80.1992 61.2656 80.1276 63.4922 79.9844C65.7188 79.8411 67.8997 79.5417 70.0352 79.0859L70.5234 82.6016C68.2839 83.0312 65.9792 83.3307 63.6094 83.5C61.2526 83.6562 58.082 83.7344 54.0977 83.7344H51.207V80.1992H54.0977ZM67.0469 70.5898H55.543V82.1328H51.207V67.0742H67.0469V70.5898ZM78.9805 98.8125H54.9766V95.2578H78.9805V98.8125ZM59.293 97.0156H54.9766V87.0156H59.293V97.0156ZM30.1328 148.395H16.2656V125.992H30.1328V148.395ZM20.3281 144.957H26.0508V129.41H20.3281V144.957ZM45.6406 157.438H41.4609V122.164H45.6406V157.438ZM36.0508 138.668H27.9844V135.172H36.0508V138.668ZM38.375 155.777H34.2539V122.77H38.375V155.777ZM82.0273 153.199H49.7617V149.625H82.0273V153.199ZM67.9453 150.504H63.668V141.246H67.9453V150.504ZM78.2969 141.93H53.2969V124.918H78.2969V141.93ZM57.5742 138.512H74.0391V128.375H57.5742V138.512ZM113.727 157.535H109.41V122.164H113.727V157.535ZM89.3516 145.582C92.6458 145.595 95.6341 145.51 98.3164 145.328C101.012 145.146 103.772 144.827 106.598 144.371L106.988 147.926C104.176 148.408 101.402 148.74 98.668 148.922C95.9466 149.091 92.8411 149.176 89.3516 149.176H86.2656V145.582H89.3516ZM102.867 138.473H90.7383V146.93H86.2656V135.035H98.4531V128.766H86.2266V125.23H102.867V138.473ZM27.7109 188.641C27.7109 191.583 27.3073 194.363 26.5 196.98C25.7057 199.585 24.5404 201.876 23.0039 203.855C21.4674 205.835 19.6185 207.339 17.457 208.367L14.8008 204.734C16.7148 203.888 18.375 202.645 19.7812 201.004C21.1875 199.35 22.2617 197.456 23.0039 195.32C23.7591 193.172 24.1367 190.945 24.1367 188.641V182.996H27.7109V188.641ZM28.5117 188.641C28.5117 190.828 28.8763 192.944 29.6055 194.988C30.3346 197.033 31.3893 198.855 32.7695 200.457C34.1628 202.059 35.7904 203.263 37.6523 204.07L35.0742 207.547C32.9909 206.57 31.181 205.132 29.6445 203.23C28.1081 201.316 26.9362 199.109 26.1289 196.609C25.3216 194.109 24.918 191.453 24.918 188.641V182.996H28.5117V188.641ZM44.5469 215.535H40.1523V180.164H44.5469V215.535ZM67.1836 184.988C67.1836 187.501 66.5521 189.858 65.2891 192.059C64.0391 194.259 62.3073 196.128 60.0938 197.664C57.8932 199.201 55.3997 200.262 52.6133 200.848L50.7383 197.234C53.1211 196.779 55.276 195.932 57.2031 194.695C59.1432 193.458 60.6536 191.987 61.7344 190.281C62.8281 188.576 63.375 186.811 63.375 184.988V182.41H67.1836V184.988ZM67.9648 184.988C67.9648 186.811 68.5117 188.582 69.6055 190.301C70.7122 192.007 72.2357 193.484 74.1758 194.734C76.1289 195.971 78.3034 196.805 80.6992 197.234L78.7656 200.848C76.0052 200.262 73.5247 199.207 71.3242 197.684C69.1237 196.16 67.3919 194.305 66.1289 192.117C64.8789 189.917 64.2539 187.54 64.2539 184.988V182.41H67.9648V184.988ZM82.0273 210.965H49.7617V207.391H82.0273V210.965ZM105.133 192.293H99.4297V188.797H105.133V192.293ZM88.1406 196.199C90.9271 196.199 93.2253 196.141 95.0352 196.023C96.8581 195.906 98.707 195.691 100.582 195.379L101.012 198.777C99.0716 199.116 97.1641 199.35 95.2891 199.48C93.4271 199.598 91.0443 199.656 88.1406 199.656H85.7969V196.199H88.1406ZM99.2539 185.867H89.957V198.191H85.7969V182.332H99.2539V185.867ZM97.8867 192.547H88.6875V189.188H97.8867V192.547ZM114.508 201.297H110.367V180.164H114.508V201.297ZM107.555 201.023H103.395V180.75H107.555V201.023ZM114.508 215.027H90.6797V202.762H114.508V215.027ZM94.9961 211.531H110.211V206.219H94.9961V211.531Z" fill="black"/>
<line x1="8.48103e-08" y1="351" x2="168" y2="351" stroke="black" stroke-width="2"/>
<rect x="97.5234" y="269.5" width="36.1858" height="80.1326" fill="#080584" stroke="white"/>
<rect x="72.1641" y="278.514" width="24.3539" height="71.1178" fill="#080584" stroke="white"/>
<rect x="47.375" y="284.148" width="23.7905" height="65.4836" fill="#080584" stroke="white"/>
<rect x="27.0652" y="280.89" width="20.0734" height="65.3812" transform="rotate(16.3875 27.0652 280.89)" fill="#080584" stroke="white"/>
</svg>
