<svg width="76" height="113" viewBox="0 0 76 113" fill="none" xmlns="http://www.w3.org/2000/svg">
<rect y="15.6074" width="37.5187" height="40.9508" fill="#080584"/>
<rect y="56.5605" width="37.5187" height="40.9508" fill="#080584"/>
<rect x="37.5234" y="63.7832" width="37.5187" height="40.9508" fill="#080584"/>
<rect x="37.5234" y="22.832" width="37.5187" height="40.9508" fill="#080584"/>
<path d="M36.3822 46.5H32.0072V50.875H27.6322V55.25H10.1322V50.875H5.75723V46.5H1.38223V42.125H5.75723V37.75H10.1322C10.1322 31.9167 10.1322 29 10.1322 29H18.8822C18.8822 34.8333 18.8822 37.75 18.8822 37.75H14.5072V50.875H27.6322V46.5H32.0072V42.125H36.3822V46.5ZM36.3822 33.375H27.6322V29H18.8822V24.625H32.0072V29H36.3822V33.375Z" fill="white"/>
<path d="M45.5047 32.0499L55.8574 31.3555L58.614 35.8375L61.0338 29.6301L67.7463 29.4617L75.6792 66.3487L63.4326 65.1493L61.2022 52.5661L58.7823 57.2164L55.5208 51.3666L54.4687 62.035L42.5798 62.8978L45.5047 32.0499Z" fill="white"/>
<path d="M8.828 62.3313C8.39313 63.2993 8.17569 64.3163 8.17569 65.3825C8.17569 66.8274 8.55445 68.3143 9.31197 69.8434C10.0695 71.3725 11.1076 72.8665 12.4262 74.3254C13.7449 75.7703 15.1827 77.0679 16.7399 78.2182C18.297 79.3545 19.9663 80.3785 21.7479 81.2904C22.4914 81.6551 23.2419 82.1601 23.9994 82.8054C24.7569 83.4507 25.3882 84.1521 25.8932 84.9096C26.4123 85.6531 26.6718 86.3405 26.6718 86.9718C26.6718 87.9257 26.0055 88.5569 24.6728 88.8656C24.4764 88.9357 24.0906 88.9708 23.5155 88.9708C22.7299 88.9708 21.804 88.8936 20.7379 88.7393C19.6858 88.571 18.5004 88.3325 17.1818 88.0239C15.8771 87.7152 14.6988 87.3856 13.6467 87.0349C12.5946 86.6842 11.5635 86.2633 10.5535 85.7724C10.4132 85.7022 10.1607 85.6251 9.79594 85.5409C9.43121 85.4427 9.10155 85.3164 8.80696 85.1621C8.5264 85.0078 8.24583 84.7483 7.96527 84.3836L5.37708 91.2854C6.80795 91.7063 8.51938 92.1902 10.5114 92.7373C12.5034 93.2844 14.1938 93.7193 15.5825 94.0419C16.9713 94.3646 18.3321 94.6241 19.6647 94.8205C21.0114 95.0169 22.1968 95.1151 23.2209 95.1151C25.1427 95.1151 26.7419 94.7995 28.0185 94.1682C29.3091 93.5369 30.263 92.5199 30.8802 91.1171C31.3151 90.2193 31.5325 89.1251 31.5325 87.8345C31.5325 86.9086 31.3782 85.9477 31.0696 84.9517C30.775 83.9557 30.277 82.9387 29.5756 81.9006C28.8742 80.8625 27.8852 79.8034 26.6087 78.7232C25.3321 77.629 23.768 76.5909 21.9162 75.609C20.1347 74.641 18.2619 73.3434 16.298 71.7162C14.334 70.0749 13.3521 68.5248 13.3521 67.0658C13.3521 66.0698 13.9132 65.2352 15.0355 64.5618C15.4423 64.3374 16.0314 64.2251 16.803 64.2251C17.5745 64.2251 18.5004 64.3233 19.5806 64.5197C20.6607 64.7161 21.79 64.9827 22.9684 65.3193C24.1608 65.656 25.29 66.0348 26.3562 66.4556C27.4223 66.8624 28.3552 67.2692 29.1548 67.6761C29.295 67.7462 29.5546 67.8304 29.9333 67.9286C30.3121 68.0127 30.6347 68.132 30.9013 68.2863C31.1818 68.4266 31.4624 68.6791 31.743 69.0438L34.3311 62.163C32.2971 61.5598 30.1858 60.9917 27.9974 60.4586C25.8091 59.9255 23.789 59.5187 21.9373 59.2381C20.0856 58.9435 18.3741 58.7962 16.803 58.7962C12.5244 58.7962 9.86608 59.9746 8.828 62.3313ZM7.27088 62.163C8.84203 58.8243 12.1176 57.155 17.0976 57.155C19.7208 57.155 22.4844 57.5267 25.3882 58.2702C28.292 58.9997 31.7359 60.0097 35.7199 61.3003C35.4113 62.0017 34.752 63.7552 33.742 66.5608C32.7319 69.3664 32.1848 70.7693 32.1007 70.7693C31.9885 70.657 31.3432 70.2923 30.1648 69.6751C29.0005 69.0438 27.7239 68.4336 26.3351 67.8444C24.9604 67.2552 23.8381 66.9115 22.9684 66.8133C22.5756 66.7712 21.6567 66.5538 20.2118 66.161C18.781 65.7682 17.7148 65.5718 17.0134 65.5718C16.3681 65.5718 15.8771 65.6981 15.5405 65.9506C14.9653 66.3574 14.6777 66.8344 14.6777 67.3815C14.6777 67.8865 14.9162 68.4406 15.3932 69.0438C15.8701 69.633 16.4944 70.2222 17.2659 70.8113C18.0375 71.4005 18.8932 71.9757 19.8331 72.5368C20.773 73.0979 21.6988 73.6029 22.6106 74.0518C24.4904 74.9777 26.1177 76.0368 27.4924 77.2292C28.8812 78.4076 29.9614 79.5859 30.7329 80.7643C31.5045 81.9427 32.0656 83.1421 32.4163 84.3625C32.781 85.5689 32.9634 86.7122 32.9634 87.7924C32.9634 89.069 32.7319 90.2333 32.269 91.2854C31.4133 93.095 30.1578 94.4067 28.5025 95.2203C26.8471 96.048 24.8692 96.4618 22.5686 96.4618C21.2499 96.4618 19.7629 96.3215 18.1076 96.0409C16.4663 95.7744 14.8741 95.4307 13.331 95.0099C11.802 94.6031 10.1817 94.1331 8.47028 93.6C6.77288 93.053 5.27888 92.569 3.98829 92.1481C4.19872 91.7133 4.54241 90.8575 5.01936 89.581C5.48229 88.2904 5.88209 87.1752 6.21877 86.2353C6.54141 85.2954 6.84302 84.4677 7.12358 83.7523C7.39012 83.0369 7.55144 82.6791 7.60755 82.6791C8.00034 83.0018 9.31899 83.7102 11.5635 84.8044C13.808 85.8846 15.5405 86.4948 16.7609 86.6351C17.2098 86.6772 17.9743 86.8455 19.0545 87.1401C20.1347 87.4347 20.8712 87.6311 21.2639 87.7293C21.6708 87.8275 22.1477 87.8766 22.6948 87.8766C23.3401 87.8766 23.8311 87.7503 24.1678 87.4978C24.799 87.0349 25.1147 86.5439 25.1147 86.0249C25.1147 84.8745 23.6487 83.5278 20.7168 81.9848C18.9212 81.0449 16.9222 79.7332 14.7198 78.0499C12.5314 76.3525 10.6096 74.3955 8.95425 72.1791C7.31296 69.9486 6.49232 67.7252 6.49232 65.5087C6.49232 64.3724 6.75184 63.2572 7.27088 62.163Z" fill="white"/>
<path d="M53.7186 94.4998H50.3518V97.8665H57.0853V101.233H46.9851V97.8665H43.6183V94.4998H46.9851V91.133H53.7186V94.4998ZM67.1856 74.2993H63.8188V77.666H57.0853V74.2993H60.4521V70.9325H53.7186V74.2993H50.3518C50.3518 78.7883 50.3518 81.0328 50.3518 81.0328H57.0853V84.3995H63.8188V87.7663H67.1856C67.1856 92.2553 67.1856 94.4998 67.1856 94.4998H63.8188V97.8665H57.0853V94.4998H60.4521C60.4521 90.0108 60.4521 87.7663 60.4521 87.7663H53.7186V84.3995H46.9851V81.0328H43.6183C43.6183 76.5438 43.6183 74.2993 43.6183 74.2993H46.9851V70.9325H53.7186V67.5658H63.8188V70.9325H67.1856V74.2993Z" fill="white"/>
</svg>
