<svg width="77" height="87" viewBox="0 0 77 87" fill="none" xmlns="http://www.w3.org/2000/svg">
<path d="M17 42L38.3193 64L60 42" stroke="black"/>
<path d="M17 64L38.3193 86L60 64" stroke="black"/>
<path d="M10.8206 3.42V5.44C10.474 5.14667 10.1206 4.88667 9.76063 4.66C9.41396 4.43333 9.06729 4.24667 8.72063 4.1C7.92063 3.72667 7.10729 3.54 6.28063 3.54C5.24063 3.54 4.38063 3.8 3.70063 4.32C3.00729 4.85333 2.66063 5.48667 2.66063 6.22C2.66063 7.28667 3.44729 8.08667 5.02063 8.62C5.75396 8.87333 6.48063 9.12 7.20063 9.36C7.93396 9.58667 8.67396 9.82 9.42063 10.06C11.0073 10.82 11.8006 11.9533 11.8006 13.46C11.8006 14.9267 11.234 16.1067 10.1006 17C9.02063 17.84 7.68063 18.26 6.08063 18.26C5.01396 18.26 3.98729 18.0533 3.00063 17.64C2.42729 17.4133 1.74729 17.04 0.960625 16.52V14.48C1.98729 15.4 3.02729 16.0467 4.08063 16.42C4.42729 16.5533 4.76729 16.6467 5.10063 16.7C5.43396 16.7533 5.76729 16.78 6.10063 16.78C7.16729 16.78 8.06729 16.5133 8.80063 15.98C9.61396 15.3933 10.0206 14.6267 10.0206 13.68C10.0206 12.5333 9.24729 11.66 7.70063 11.06C6.95396 10.8333 6.22063 10.6 5.50063 10.36C4.78063 10.12 4.06063 9.88667 3.34063 9.66C1.78063 8.94 1.00063 7.83333 1.00063 6.34C1.00063 5.08667 1.49396 4.06667 2.48063 3.28C3.49396 2.46667 4.76063 2.06 6.28063 2.06C7.21396 2.06 8.14729 2.23333 9.08063 2.58C9.56063 2.74 10.1406 3.02 10.8206 3.42ZM25.6173 3.56V5.58C25.124 5.1 24.5573 4.68667 23.9173 4.34C22.9173 3.80667 21.9107 3.54 20.8973 3.54C19.3373 3.54 17.9973 4.2 16.8773 5.52C16.3173 6.17333 15.8973 6.88667 15.6173 7.66C15.3507 8.43333 15.2173 9.26 15.2173 10.14C15.2173 11.94 15.7773 13.4867 16.8973 14.78C18.004 16.0733 19.3507 16.72 20.9373 16.72C21.684 16.72 22.444 16.5733 23.2173 16.28C24.004 15.9733 24.804 15.5067 25.6173 14.88V16.82C23.8307 17.78 22.2107 18.26 20.7573 18.26C18.8773 18.26 17.2307 17.5333 15.8173 16.08C14.2973 14.52 13.5373 12.5667 13.5373 10.22C13.5373 7.94 14.244 6.01333 15.6573 4.44C17.0973 2.85333 18.8773 2.06 20.9973 2.06C21.824 2.06 22.6173 2.18667 23.3773 2.44C24.1373 2.69333 24.884 3.06667 25.6173 3.56ZM27.4488 2.32H32.6288C34.0154 2.32 35.1621 2.54667 36.0688 3C37.3354 3.64 37.9688 4.70667 37.9688 6.2C37.9688 7.22667 37.6821 8.06667 37.1088 8.72C36.5354 9.37333 35.6154 9.89333 34.3488 10.28C34.5754 10.3733 34.7754 10.4667 34.9488 10.56C35.1221 10.64 35.2621 10.7333 35.3688 10.84C35.8354 11.24 36.2021 11.8267 36.4688 12.6L38.4688 18H36.6888L35.6488 14.72C35.1021 13.08 34.5288 12.0067 33.9288 11.5C33.4088 11.02 32.5488 10.78 31.3488 10.78H29.0288V18H27.4488V2.32ZM32.9288 3.7H29.0288V9.54H31.4288C32.3888 9.54 33.1954 9.45333 33.8488 9.28C34.5154 9.09333 35.0554 8.8 35.4688 8.4C35.7488 8.14667 35.9754 7.83333 36.1488 7.46C36.3354 7.08667 36.4288 6.70667 36.4288 6.32C36.4288 5.58667 36.1288 4.98 35.5288 4.5C34.8754 3.96667 34.0088 3.7 32.9288 3.7ZM47.0617 18.26C45.2484 18.26 43.6617 17.5533 42.3017 16.14C40.8084 14.6067 40.0617 12.6267 40.0617 10.2C40.0617 7.88 40.7617 5.92 42.1617 4.32C43.5217 2.81333 45.1351 2.06 47.0017 2.06C48.8951 2.06 50.5217 2.8 51.8817 4.28C53.2817 5.84 53.9817 7.80667 53.9817 10.18C53.9817 12.6467 53.2217 14.6467 51.7017 16.18C50.3551 17.5667 48.8084 18.26 47.0617 18.26ZM46.9417 16.78C48.4217 16.78 49.6817 16.16 50.7217 14.92C51.7751 13.6533 52.3017 12.0733 52.3017 10.18C52.3017 9.26 52.1751 8.40667 51.9217 7.62C51.6684 6.83333 51.2884 6.12 50.7817 5.48C49.7684 4.18667 48.5151 3.54 47.0217 3.54C45.5417 3.54 44.2884 4.18667 43.2617 5.48C42.2484 6.74667 41.7417 8.32667 41.7417 10.22C41.7417 12.1933 42.2751 13.8 43.3417 15.04C44.3417 16.2 45.5417 16.78 46.9417 16.78ZM55.8291 2.32H57.4091V16.62H65.1491V18H55.8291V2.32ZM66.8642 2.32H68.4442V16.62H76.1842V18H66.8642V2.32Z" fill="black"/>
</svg>
